<svg width="200" height="200" viewBox="0 0 200 200" fill="none" xmlns="http://www.w3.org/2000/svg">
    <path fill-rule="evenodd" clip-rule="evenodd"
        d="M34.903 38.6838C19.3268 54.8133 11.2031 75.659 11.1343 97.6367L11.166 100.768C11.166 107.856 16.884 113.622 23.9118 113.622C30.9396 113.622 36.6576 107.856 36.6576 100.768V83.092C36.6576 81.3181 38.0839 79.8796 39.8438 79.8796C41.6026 79.8796 43.0299 81.3181 43.0299 83.092V100.768C43.0299 111.4 34.454 120.05 23.9118 120.05C13.3696 120.05 4.79367 111.4 4.79367 100.768L4.7619 97.5213C4.85826 73.9011 13.6173 51.5133 30.3382 34.1994C48.4027 15.4918 74.0764 4.7619 99.9852 4.7619C140.227 4.7619 175.655 30.1411 189.22 68.2206C189.488 68.9735 188.78 69.7243 187.938 69.4712C186.191 68.9468 184.645 68.5506 182.875 68.1565C182.495 68.071 182.237 67.7603 182.176 67.6022C168.835 33.6259 136.527 11.1889 99.9852 11.1889C75.7844 11.1889 51.7763 21.2097 34.903 38.6838ZM188.866 102.362C188.797 124.34 180.674 145.186 165.097 161.315C148.224 178.789 124.216 188.81 100.015 188.81C63.4732 188.81 31.1656 166.373 17.8248 132.397C17.7634 132.239 17.505 131.928 17.1259 131.842C15.3565 131.448 13.8095 131.052 12.0613 130.528C11.2195 130.275 10.5111 131.025 10.7801 131.778C24.3454 169.858 59.7734 195.238 100.015 195.238C125.925 195.238 151.597 184.508 169.662 165.8C186.382 148.486 195.143 126.099 195.238 102.478L195.206 99.231C195.206 88.5994 186.632 79.9499 176.089 79.9499C165.547 79.9499 156.97 88.5994 156.97 99.231V116.907C156.97 118.681 158.398 120.119 160.157 120.119C161.916 120.119 163.343 118.681 163.343 116.907V99.231C163.343 92.144 169.061 86.3769 176.089 86.3769C183.116 86.3769 188.834 92.144 188.834 99.231L188.866 102.362ZM84.5204 120.05C82.7602 120.05 81.3336 118.614 81.3336 116.842V99.1983C81.3336 92.1226 75.6144 86.3657 68.5862 86.3657C61.5559 86.3657 55.8378 92.1226 55.8378 99.1983V116.842C55.8378 118.614 54.4101 120.05 52.6509 120.05C50.8907 120.05 49.463 118.614 49.463 116.842V99.1983C49.463 88.5842 58.0418 79.9499 68.5862 79.9499C79.1306 79.9499 87.7073 88.5842 87.7073 99.1983V116.842C87.7073 118.614 86.2807 120.05 84.5204 120.05ZM130.174 86.3659C122.724 86.3659 116.664 92.4822 116.664 100.001C116.664 107.519 122.724 113.635 130.174 113.635C137.622 113.635 143.682 107.519 143.682 100.001C143.682 92.4822 137.622 86.3659 130.174 86.3659ZM130.174 120.05C119.218 120.05 110.306 111.057 110.306 100.001C110.306 88.9437 119.218 79.9499 130.174 79.9499C141.128 79.9499 150.04 88.9437 150.04 100.001C150.04 111.057 141.128 120.05 130.174 120.05ZM96.1507 116.651C96.1507 118.528 97.6523 120.05 99.5033 120.05C101.354 120.05 102.856 118.528 102.856 116.651V83.3476C102.856 81.4711 101.354 79.9499 99.5033 79.9499C97.6523 79.9499 96.1507 81.4711 96.1507 83.3476V116.651Z"
        fill="white" />
</svg>
