<svg width="24" height="24" viewBox="0 0 24 24" fill="none" xmlns="http://www.w3.org/2000/svg">
    <path fill-rule="evenodd" fill="#6D7179" clip-rule="evenodd"
        d="M19.599,22.657h-5.22a0.65,0.65 0,0 1,-0.65 -0.65v-5.17h-3.56v5.17a0.65,0.65 0,0 1,-0.65 0.65h-5.22a0.65,0.65 0,0 1,-0.65 -0.65v-8.6h-1.91a0.81,0.81 0,0 1,-0.69 -0.46,0.74 0.74,0 0,1 0.18,-0.8l10.26,-10.46a0.66,0.66 0,0 1,0.92 0l10.28,10.47a0.84,0.84 0,0 1,0.15 0.81,0.72 0.72,0 0,1 -0.68,0.44h-1.91v8.6a0.65,0.65 0,0 1,-0.65 0.65zM15.029,21.357h3.92v-8.59a0.65,0.65 0,0 1,0.65 -0.65h1.22l-8.87,-9.04 -8.87,9h1.22a0.65,0.65 0,0 1,0.65 0.65v8.59h3.92v-5.13a0.65,0.65 0,0 1,0.65 -0.65h4.86a0.65,0.65 0,0 1,0.65 0.65v5.17z" />
</svg>
